Coordinates
version=1
nRows=43
nColumns=12
inDegrees=yes

Units are S.I. units (second, meters, Newtons, ...)
Angles are in degrees

endheader
time	SC_y	SC_z	SC_x	AC_y	AC_z	AC_x	GH_y	GH_z	GH_yy	EL_x	PS_y
       0.0              -47.73          20.17          74.95           55.3          8.265         -1.331         -67.13          76.19          86.11          55.47           87.1
   0.03075              -47.73          20.17          74.94           55.3          8.263         -1.328         -67.09          76.18          86.11          55.48           87.1
   0.06149              -47.73          20.17          74.93           55.3           8.26         -1.325         -67.06          76.18          86.11          55.49           87.1
   0.09224              -47.73          20.17          74.92           55.3          8.258         -1.321         -67.02          76.17          86.12          55.49           87.1
     0.123              -47.73          20.17          74.91           55.3          8.255         -1.318         -66.98          76.17          86.12           55.5           87.1
    0.1537              -47.73          20.18           74.9           55.3          8.252         -1.314         -66.93          76.16          86.13          55.51           87.1
    0.1845              -47.73          20.18          74.89          55.29          8.249          -1.31         -66.89          76.16          86.13          55.52           87.1
    0.2152              -47.73          20.18          74.87          55.29          8.245         -1.306         -66.84          76.15          86.14          55.53          87.09
     0.246              -47.73          20.18          74.86          55.29          8.242         -1.301         -66.78          76.15          86.14          55.54          87.09
    0.2767              -47.74          20.18          74.85          55.29          8.238         -1.296         -66.72          76.14          86.15          55.55          87.09
    0.3075              -47.74          20.18          74.83          55.29          8.234         -1.291         -66.66          76.14          86.15          55.56          87.09
    0.3382              -47.74          20.18          74.81          55.29          8.229         -1.286         -66.59          76.13          86.16          55.57          87.09
    0.3689              -47.74          20.19          74.79          55.29          8.224          -1.28         -66.52          76.12          86.16          55.59          87.08
    0.3997              -47.74          20.19          74.77          55.28          8.219         -1.273         -66.44          76.11          86.17           55.6          87.08
    0.4304              -47.74          20.19          74.75          55.28          8.213         -1.266         -66.36           76.1          86.18          55.62          87.08
    0.4612              -47.74          20.19          74.73          55.28          8.207         -1.258         -66.27           76.1          86.19          55.64          87.07
    0.4919              -47.74          20.19           74.7          55.28            8.2          -1.25         -66.17          76.08           86.2          55.65          87.07
    0.5227              -47.75           20.2          74.68          55.27          8.193         -1.241         -66.06          76.07          86.21          55.68          87.07
    0.5534              -47.75           20.2          74.65          55.27          8.185         -1.231         -65.94          76.06          86.22           55.7          87.06
    0.5842              -47.75           20.2          74.61          55.27          8.176          -1.22         -65.81          76.05          86.23          55.72          87.06
    0.6149              -47.75           20.2          74.58          55.26          8.166         -1.208         -65.67          76.03          86.24          55.75          87.05
    0.6456              -47.75          20.21          74.54          55.26          8.155         -1.194         -65.51          76.02          86.26          55.78          87.05
    0.6764              -47.76          20.21          74.49          55.26          8.144          -1.18         -65.34           76.0          86.27          55.81          87.04
    0.7071              -47.76          20.22          74.44          55.25          8.131         -1.164         -65.15          75.98          86.29          55.85          87.04
    0.7379              -47.76          20.22          74.39          55.25          8.116         -1.146         -64.93          75.96          86.31          55.89          87.03
    0.7686              -47.77          20.23          74.33          55.24            8.1         -1.126          -64.7          75.93          86.33          55.93          87.02
    0.7994              -47.77          20.23          74.26          55.23          8.082         -1.103         -64.43           75.9          86.36          55.98          87.01
    0.8301              -47.78          20.24          74.19          55.23          8.062         -1.078         -64.13          75.87          86.38          56.04           87.0
    0.8609              -47.78          20.25           74.1          55.22          8.039         -1.049         -63.79          75.84          86.42           56.1          86.99
    0.8916              -47.79          20.25           74.0          55.21          8.012         -1.017         -63.41           75.8          86.45          56.18          86.98
    0.9224               -47.8          20.26          73.89           55.2          7.983          -0.98         -62.97          75.75          86.49          56.26          86.97
    0.9531               -47.8          20.27          73.76          55.18          7.948        -0.9376         -62.47           75.7          86.54          56.35          86.95
    0.9838              -47.81          20.29          73.61          55.17          7.909        -0.8886         -61.88          75.64          86.59          56.46          86.93
     1.015              -47.82           20.3          73.44          55.15          7.863        -0.8316         -61.21          75.57          86.65          56.59          86.91
     1.045              -47.84          20.32          73.24          55.13          7.809         -0.765         -60.42          75.48          86.73          56.74          86.88
     1.076              -47.85          20.34           73.0          55.11          7.746        -0.6864         -59.49          75.39          86.81          56.92          86.85
     1.107              -47.87          20.36          72.72          55.08          7.671        -0.5931         -58.38          75.27          86.92          57.13          86.81
     1.138              -47.89          20.39          72.38          55.05          7.581        -0.4812         -57.05          75.13          87.04          57.38          86.77
     1.168              -47.92          20.43          71.98          55.01          7.472        -0.3458         -55.45          74.96          87.19          57.68          86.72
     1.199              -47.95          20.47          71.48          54.96          7.338        -0.1805         -53.48          74.76          87.37          58.05          86.65
      1.23              -47.99          20.53          70.86           54.9          7.174        0.02362         -51.06           74.5          87.59          58.51          86.57
     1.261              -48.03          20.59          70.09          54.82          6.969         0.2781         -48.04          74.19          87.87          59.08          86.47
     1.291              -48.09          20.68          69.12          54.73           6.71         0.5987         -44.24          73.79          88.22           59.8          86.35
